<?xml version="1.0" encoding="iso-8859-1"?>
<!-- Generator: Adobe Illustrator 19.0.0, SVG Export Plug-In . SVG Version: 6.00 Build 0)  -->
<svg version="1.1" id="Layer_1" xmlns="http://www.w3.org/2000/svg" xmlns:xlink="http://www.w3.org/1999/xlink" x="0px" y="0px"
	 viewBox="0 0 504 504" style="enable-background:new 0 0 504 504;" xml:space="preserve" fill-opacity="0.8">
<circle style="fill:#FFD05B;" cx="252" cy="252" r="252"/>
<polygon style="fill:#324A5E;" points="309.4,371.4 123.1,421.5 123.1,132.5 309.4,82.5 "/>
<rect x="123.1" y="132.5" style="fill:#FFFFFF;" width="257.7" height="289"/>
<path style="fill:#E6E9EE;" d="M123.1,282.4v139.1h230.2c-5.5-6.7-11-13.4-16.6-20.1c-4.2-5.1-8.5-10.3-14.4-13.3
	c-13.1-6.7-30-0.6-43-7.6c-15.3-8.1-18.2-30.5-33.3-39.2c-13.5-7.7-31.4-1.5-45.3-8.3c-16.1-8-21.9-31-39.2-35.9
	c-5.2-1.5-10.8-1-16.1-1.8C136.6,294.2,128.7,289.3,123.1,282.4z"/>
<g>
	<path style="fill:#FF7058;" d="M193.1,184.9l-12.6,25.4h-6.2l-12.5-25.4v29.3h-10.4v-46.5h14l12,25.6l12-25.6h14v46.5H193v-29.3
		H193.1z"/>
	<path style="fill:#FF7058;" d="M248.5,167.7v9.3h-23.2v9.6h20.8v8.9h-20.8v9.7h23.9v9.2h-34.3v-46.5h33.6V167.7z"/>
	<path style="fill:#FF7058;" d="M291,167.7h10.4v46.5H291L268.8,185v29.2h-10.4v-46.5h9.7l22.8,30v-30H291z"/>
	<path style="fill:#FF7058;" d="M325.2,202.2c1.7,2.2,4.1,3.2,7,3.2s5.2-1.1,7-3.2c1.7-2.2,2.6-5.1,2.6-8.8v-25.7h10.4v26
		c0,6.8-1.9,11.9-5.6,15.6c-3.7,3.6-8.5,5.4-14.3,5.4s-10.6-1.8-14.3-5.5c-3.7-3.6-5.6-8.8-5.6-15.5v-26h10.4v25.7
		C322.6,197.1,323.4,200,325.2,202.2z"/>
</g>
<rect x="151.9" y="226.9" style="fill:#4CDBC4;" width="200.1" height="5.7"/>
<rect x="151.9" y="242.2" style="fill:#54C0EB;" width="200.1" height="5.7"/>
<g>
</g>
<g>
</g>
<g>
</g>
<g>
</g>
<g>
</g>
<g>
</g>
<g>
</g>
<g>
</g>
<g>
</g>
<g>
</g>
<g>
</g>
<g>
</g>
<g>
</g>
<g>
</g>
<g>
</g>
</svg>
